<svg viewBox="0 0 41 32" fill="none" xmlns="http://www.w3.org/2000/svg">
<path d="M0.0684683 25.3936C-0.0456456 25.1725 -0.0171171 24.9728 0.154054 24.8586C0.396546 24.6875 39.8942 24.6875 40.1367 24.8586C40.3079 24.9728 40.3364 25.1725 40.2223 25.3936C40.1438 25.5291 39.8443 25.5291 20.1454 25.5291C0.446471 25.5291 0.146922 25.5291 0.0684683 25.3936Z" fill="#023D67"/>
<path d="M26.8502 23.7018C25.9801 23.4878 25.2883 22.8887 24.8176 21.9473C24.3041 20.906 24.3112 20.9702 24.3326 14.2517L24.354 8.30351L24.5252 7.80426C25.1457 5.93564 26.2939 5.12258 28.1483 5.22243C28.7759 5.25809 28.9471 5.29375 29.4178 5.51485C30.0882 5.82153 30.6089 6.33504 30.9369 6.99833C31.4433 8.02536 31.4077 7.51184 31.4291 14.2731C31.4576 21.0771 31.4647 20.9702 30.9797 21.9544C30.5162 22.8887 29.6674 23.5734 28.7474 23.7446C28.2196 23.8444 27.3638 23.823 26.8502 23.7018ZM28.4122 21.0415C28.4692 20.9916 28.5762 20.799 28.6475 20.6207C28.7688 20.3069 28.7759 19.9003 28.7759 14.4371V8.58879L28.6119 8.28924C28.4264 7.93264 28.2767 7.83992 27.9058 7.83992C27.5563 7.83992 27.3352 7.99683 27.1641 8.3677C27.0357 8.64585 27.0285 8.9454 27.0285 14.5085C27.0285 20.1214 27.0357 20.3711 27.1712 20.6563C27.3495 21.0629 27.6562 21.2483 28.027 21.177C28.1839 21.1485 28.3551 21.0843 28.4122 21.0415Z" fill="#023D67"/>
<path d="M35.1588 23.7435C34.0818 23.551 33.3116 22.9733 32.8123 21.9748C32.5841 21.5326 32.3987 20.6981 32.2988 19.6996C32.1776 18.4943 32.1633 18.5157 33.3187 18.4087C34.4242 18.3017 34.6952 18.3017 34.7879 18.4158C34.8307 18.4658 34.8806 18.7582 34.9092 19.072C34.9947 20.1917 35.2658 20.9691 35.6438 21.2188C35.872 21.3685 36.3855 21.3685 36.6209 21.2188C37.0417 20.9406 37.2699 20.1989 37.2128 19.2717C37.1558 18.3873 36.8491 17.7668 35.2515 15.3847C34.4955 14.2507 33.7181 13.0168 33.5255 12.6317C33.1047 11.7901 32.7481 10.7131 32.6625 9.9928C32.5342 9.00857 32.8052 7.60354 33.2759 6.80474C33.5255 6.37681 34.0676 5.84191 34.4884 5.61368C35.8078 4.90047 37.762 5.13583 38.7034 6.12006C39.3168 6.75482 39.759 7.96728 39.8446 9.22966C39.8802 9.76457 39.866 9.88582 39.7733 9.9714C39.7091 10.0213 39.3382 10.0926 38.9245 10.1283C38.518 10.1568 38.0259 10.2068 37.8333 10.2353C37.3555 10.2923 37.2628 10.1782 37.1986 9.47929C37.1272 8.73755 36.9775 8.2383 36.7207 7.94588C36.5282 7.73192 36.4568 7.69626 36.1787 7.69626C35.5796 7.69626 35.3014 8.2169 35.3014 9.33664C35.3014 10.3851 35.5154 10.8415 37.2699 13.4447C39.488 16.7612 39.9302 17.8239 39.8446 19.7067C39.8018 20.7694 39.6663 21.3543 39.3168 22.0532C38.8746 22.9376 38.0045 23.5866 37.0488 23.7435C36.5567 23.822 35.6224 23.822 35.1588 23.7435Z" fill="#023D67"/>
<path d="M0.440502 23.515C0.319256 23.3938 0.312124 5.62765 0.440502 5.49928C0.576013 5.36377 6.50994 5.37803 6.62405 5.51354C6.68111 5.57773 6.7025 5.98426 6.68824 6.81159C6.66684 8.00978 6.66684 8.00978 6.48854 8.1025C6.36016 8.16669 5.85378 8.19522 4.69125 8.19522H3.06512V10.7984V13.4017H4.192C4.97653 13.4017 5.3474 13.4302 5.40446 13.4872C5.46151 13.5443 5.49004 13.9366 5.49004 14.7639C5.49004 16.2759 5.58276 16.1832 4.12068 16.1832H3.06512L3.05799 19.6993C3.05086 21.625 3.02946 23.2868 3.00093 23.3866L2.95101 23.5649L1.73855 23.5863C0.861297 23.6006 0.504691 23.5792 0.440502 23.515Z" fill="#023D67"/>
<path d="M15.851 23.5499C15.7298 23.5071 15.7155 5.76949 15.8296 5.5484C15.901 5.42002 16.0008 5.41289 17.5841 5.41289C19.0533 5.41289 19.3386 5.43428 19.845 5.56266C21.5639 5.99772 22.5124 7.14599 22.8548 9.19291C23.0045 10.0916 22.9689 12.1028 22.7906 12.816C22.6123 13.5078 22.2271 14.2781 21.8563 14.6775L21.5211 15.0341L21.7493 16.1967C21.8705 16.8385 22.0203 17.5874 22.0774 17.8584C22.5552 20.0765 23.1472 23.3002 23.1044 23.4215C23.0545 23.557 22.976 23.5641 21.8349 23.5855C20.7151 23.5998 20.6082 23.5927 20.544 23.4714C20.5083 23.4001 20.3942 22.8652 20.2943 22.2732C20.1945 21.6884 19.9306 20.1835 19.7166 18.9283C19.5027 17.673 19.2816 16.4106 19.2388 16.1325L19.1532 15.6118H18.7752H18.3972V19.5202C18.3972 22.4658 18.3758 23.45 18.3116 23.5142C18.226 23.5998 16.0507 23.6355 15.851 23.5499ZM19.4955 13.6362C20.1232 13.194 20.437 12.1242 20.3728 10.6621C20.3086 9.15725 19.9377 8.38698 19.1603 8.15875C18.9606 8.1017 18.711 8.05177 18.5969 8.05177H18.3972V10.9831V13.9215L18.8037 13.8787C19.089 13.8502 19.2958 13.7717 19.4955 13.6362Z" fill="#023D67"/>
<path d="M9.26984 30.7103C9.07014 30.6104 8.99168 30.2895 9.13433 30.1183C9.25557 29.9685 10.5037 29.9757 10.6535 30.1326C10.8532 30.3251 10.789 30.5748 10.5037 30.7245C10.2969 30.8315 9.49093 30.8244 9.26984 30.7103Z" fill="#E9560D"/>
<path d="M10.2403 29.4033C10.0977 29.2678 10.0977 29.0895 10.226 28.904C10.3188 28.7899 10.4329 28.7685 11.1603 28.7471C12.1089 28.7186 12.3371 28.797 12.3371 29.1465C12.3371 29.4817 12.2444 29.5174 11.2602 29.5174C10.5256 29.5174 10.3259 29.496 10.2403 29.4033Z" fill="#E9560D"/>
<path d="M9.52616 28.1934C9.36213 28.0365 9.38352 27.7655 9.56896 27.6371C9.68307 27.5587 9.89704 27.523 10.2822 27.523C10.7458 27.523 10.8599 27.5444 10.9811 27.6656C11.1594 27.8439 11.1666 28.0365 10.9954 28.1863C10.8099 28.3575 9.6902 28.3575 9.52616 28.1934Z" fill="#E9560D"/>
<path d="M7.95711 26.9998C7.87866 26.9427 7.82874 26.8143 7.82874 26.7002C7.82874 26.3936 8.00704 26.308 8.66319 26.308C9.31935 26.308 9.50478 26.3936 9.50478 26.7002C9.50478 27.0069 9.31935 27.0925 8.66319 27.0925C8.29232 27.0925 8.03557 27.0568 7.95711 26.9998Z" fill="#E9560D"/>
<path d="M10.1901 26.9442C10.0332 26.7872 10.0546 26.5519 10.2543 26.4021C10.3969 26.288 12.4938 26.2737 12.7006 26.3807C12.8646 26.4734 12.886 26.8229 12.722 26.9798C12.6293 27.0725 12.4153 27.0939 11.4739 27.0939C10.4255 27.0939 10.3256 27.0797 10.1901 26.9442Z" fill="#E9560D"/>
<path d="M6.07466 23.514C6.02474 23.4641 5.98907 23.3571 5.98907 23.2715C5.98907 23.1431 6.23157 21.4956 6.8164 17.6443C6.87346 17.252 7.00184 16.4175 7.09455 15.7899C8.05739 9.3496 8.64936 5.57671 8.71354 5.50539C8.82766 5.36275 11.7875 5.37701 11.9016 5.51252C11.9515 5.56958 12.03 5.91192 12.087 6.27566C12.194 6.97461 12.4222 8.47235 12.7289 10.5121C12.8288 11.1826 12.9572 12.0313 13.0142 12.4022C13.1569 13.3008 14.0127 18.978 14.2267 20.4258C14.6189 23.0647 14.6475 23.3214 14.569 23.4427C14.5048 23.5497 14.3337 23.5639 13.3209 23.5853L12.137 23.5996L12.1013 23.3C12.0728 23.1289 12.0371 22.7865 12.0157 22.5298C11.9943 22.273 11.9016 21.2032 11.8018 20.1405C11.5093 16.8383 11.5093 16.9168 11.6805 16.8669C11.8873 16.8027 11.9444 16.5958 11.7946 16.4889C11.5949 16.3462 8.96317 16.3605 8.84192 16.5031C8.72781 16.6386 8.80626 16.8241 8.9917 16.874C9.13434 16.9168 9.14147 16.9453 9.09868 17.4232C8.92038 19.3988 8.54951 23.1788 8.51385 23.3714L8.47818 23.5996H7.32278C6.50972 23.5996 6.13172 23.5711 6.07466 23.514ZM9.44815 15.74C9.46955 15.6473 9.49095 15.3049 9.49808 14.9768L9.51947 14.3777L9.926 14.1994L10.3397 14.0211L10.7462 14.1994L11.1599 14.3777L11.1813 15.0838C11.1884 15.469 11.2312 15.8184 11.2668 15.8541C11.3738 15.9611 11.6662 15.6473 11.8374 15.2336C12.1584 14.499 11.9159 13.7216 11.2027 13.2223C10.9316 13.0298 10.8389 13.0084 10.3825 13.0084C9.93314 13.0084 9.81902 13.0369 9.51947 13.2223C8.66362 13.7501 8.44966 14.8913 9.07015 15.6401C9.31264 15.9397 9.39823 15.9611 9.44815 15.74ZM10.575 15.4547C10.7747 15.2978 10.8033 15.0054 10.6321 14.8342C10.4466 14.6488 10.2398 14.6416 10.0544 14.8271C9.97593 14.9055 9.91174 15.0339 9.91174 15.1124C9.91174 15.2907 10.1542 15.5403 10.3254 15.5403C10.3967 15.5403 10.5108 15.4975 10.575 15.4547Z" fill="#E9560D"/>
<path d="M10.1837 22.1649C10.091 22.115 10.0553 22.0009 10.0553 21.7513C10.0553 21.3661 10.1623 21.2235 10.4262 21.2591C10.5688 21.2805 10.5902 21.3233 10.6116 21.6585C10.6401 22.1721 10.4904 22.3504 10.1837 22.1649Z" fill="#E9560D"/>
<path d="M10.1837 20.3849C10.0838 20.3278 10.0553 20.2208 10.0553 19.9213C10.0553 19.5861 10.0767 19.5219 10.2193 19.472C10.5046 19.365 10.6259 19.4933 10.6259 19.9284C10.6259 20.2351 10.5973 20.3278 10.4904 20.392C10.3263 20.4776 10.3335 20.4776 10.1837 20.3849Z" fill="#E9560D"/>
<path d="M10.0981 18.5003C10.0767 18.4361 10.0553 18.2435 10.0553 18.0724C10.0553 17.7015 10.2336 17.5446 10.4832 17.6801C10.6116 17.7514 10.633 17.8156 10.6116 18.1651C10.5902 18.5645 10.5831 18.5716 10.3691 18.593C10.2122 18.6073 10.1338 18.5788 10.0981 18.5003Z" fill="#E9560D"/>
</svg>
